<svg width="48" height="48" viewBox="0 0 48 48" fill="none" xmlns="http://www.w3.org/2000/svg">
<path d="M33.876 6.75995C35.7863 6.88994 37.5847 7.70753 38.9386 9.06139C40.2924 10.4152 41.11 12.2137 41.24 14.1239C41.357 15.8501 42.0363 17.4905 43.174 18.7939C44.4327 20.2364 45.1262 22.086 45.1262 24.0004C45.1262 25.9149 44.4327 27.7645 43.174 29.2069C42.0362 30.5099 41.3568 32.15 41.24 33.8759C41.11 35.7862 40.2924 37.5846 38.9386 38.9385C37.5847 40.2924 35.7863 41.11 33.876 41.2399C32.1501 41.3567 30.51 42.0361 29.207 43.1739C27.7644 44.4327 25.9146 45.1262 24 45.1262C22.0854 45.1262 20.2357 44.4327 18.793 43.1739C17.49 42.0361 15.85 41.3567 14.124 41.2399C12.2138 41.11 10.4153 40.2924 9.06146 38.9385C7.7076 37.5846 6.89002 35.7862 6.76002 33.8759C6.64325 32.15 5.96389 30.5099 4.82602 29.2069C3.56735 27.7645 2.87384 25.9149 2.87384 24.0004C2.87384 22.086 3.56735 20.2364 4.82602 18.7939C5.96371 17.4905 6.64302 15.8501 6.76002 14.1239C6.89002 12.2137 7.7076 10.4152 9.06146 9.06139C10.4153 7.70753 12.2138 6.88994 14.124 6.75995C15.85 6.64317 17.49 5.96382 18.793 4.82595C20.2357 3.5672 22.0854 2.87366 24 2.87366C25.9146 2.87366 27.7644 3.5672 29.207 4.82595C30.51 5.96382 32.1501 6.64317 33.876 6.75995Z" fill="url(#paint0_linear_123_1095)"/>
<defs>
<linearGradient id="paint0_linear_123_1095" x1="2.87384" y1="2.87366" x2="45.1262" y2="2.87366" gradientUnits="userSpaceOnUse">
<stop offset="0.268" stop-color="#F1C100"/>
<stop offset="1" stop-color="#F39607" stop-opacity="0.862745"/>
</linearGradient>
</defs>
</svg>
