<svg width="48" height="48" viewBox="0 0 48 48" fill="none" xmlns="http://www.w3.org/2000/svg">
<path d="M33.994 7.16296C35.9262 7.29623 37.7449 8.12403 39.1144 9.49353C40.4839 10.863 41.3117 12.6818 41.445 14.614C41.5644 16.3603 42.2517 18.0196 43.402 19.339C44.674 20.7994 45.3746 22.6708 45.3746 24.6075C45.3746 26.5442 44.674 28.4155 43.402 29.876C42.2516 31.1957 41.5644 32.8553 41.445 34.602C41.3115 36.5341 40.4837 38.3527 39.1142 39.7222C37.7447 41.0916 35.9261 41.9195 33.994 42.053C32.2473 42.172 30.5876 42.8593 29.268 44.01C27.8078 45.282 25.9366 45.9828 24 45.9828C22.0634 45.9828 20.1922 45.282 18.732 44.01C17.4125 42.8593 15.7527 42.172 14.006 42.053C12.074 41.9193 10.2555 41.0913 8.88605 39.7219C7.51663 38.3525 6.68869 36.534 6.55501 34.602C6.43565 32.8553 5.74839 31.1957 4.59801 29.876C3.32607 28.4155 2.62543 26.5442 2.62543 24.6075C2.62543 22.6708 3.32607 20.7994 4.59801 19.339C5.74838 18.0196 6.43565 16.3603 6.55501 14.614C6.68828 12.6818 7.51608 10.863 8.88559 9.49353C10.2551 8.12403 12.0738 7.29623 14.006 7.16296C15.7526 7.04345 17.4122 6.3562 18.732 5.20596C20.1922 3.93389 22.0634 3.23315 24 3.23315C25.9366 3.23315 27.8078 3.93389 29.268 5.20596C30.5878 6.3562 32.2474 7.04345 33.994 7.16296Z" fill="url(#paint0_linear_123_1031)"/>
<path d="M46 36C46 41.322 41.768 45.673 36.43 45.982V45.999H35.93L35.822 46L35.713 45.999H22.503L22.428 46L22.353 45.999H21.998V45.986C18.648 45.768 16 43.03 16 39.684C16 36.196 18.878 33.368 22.428 33.368C23.66 33.368 24.812 33.709 25.79 34.299C26.611 29.587 30.79 26 35.822 26C41.443 26 46 30.477 46 36Z" fill="url(#paint1_linear_123_1031)" fill-opacity="0.95"/>
<defs>
<linearGradient id="paint0_linear_123_1031" x1="2.62543" y1="3.23315" x2="45.3746" y2="3.23315" gradientUnits="userSpaceOnUse">
<stop offset="0.268" stop-color="#F1C100"/>
<stop offset="1" stop-color="#F39607" stop-opacity="0.862745"/>
</linearGradient>
<linearGradient id="paint1_linear_123_1031" x1="16" y1="26" x2="46" y2="26" gradientUnits="userSpaceOnUse">
<stop stop-color="#B5B5B5" stop-opacity="0.92"/>
<stop offset="1" stop-color="#E3E3E3" stop-opacity="0.92"/>
</linearGradient>
</defs>
</svg>
