<svg width="48" height="48" viewBox="0 0 48 48" fill="none" xmlns="http://www.w3.org/2000/svg">
<path d="M20.83 5.62299C21.9573 5.69968 23.0188 6.18219 23.8178 6.9812C24.6168 7.78021 25.0993 8.84163 25.176 9.96899C25.245 10.9881 25.6462 11.9565 26.318 12.726C27.0607 13.5775 27.4699 14.6691 27.4699 15.799C27.4699 16.9289 27.0607 18.0205 26.318 18.872C25.6462 19.6414 25.245 20.6099 25.176 21.629C25.0993 22.7564 24.6168 23.8178 23.8178 24.6168C23.0188 25.4158 21.9573 25.8983 20.83 25.975C19.8109 26.044 18.8424 26.4452 18.073 27.117C17.2215 27.8597 16.1299 28.2689 15 28.2689C13.8701 28.2689 12.7785 27.8597 11.927 27.117C11.1575 26.4452 10.1891 26.044 9.16998 25.975C8.04261 25.8983 6.9812 25.4158 6.18219 24.6168C5.38318 23.8178 4.90067 22.7564 4.82398 21.629C4.75494 20.6099 4.3538 19.6414 3.68198 18.872C2.93929 18.0205 2.53009 16.9289 2.53009 15.799C2.53009 14.6691 2.93929 13.5775 3.68198 12.726C4.3538 11.9565 4.75494 10.9881 4.82398 9.96899C4.90067 8.84163 5.38318 7.78021 6.18219 6.9812C6.9812 6.18219 8.04261 5.69968 9.16998 5.62299C10.1891 5.55395 11.1575 5.15281 11.927 4.48099C12.7785 3.7383 13.8701 3.3291 15 3.3291C16.1299 3.3291 17.2215 3.7383 18.073 4.48099C18.8424 5.15281 19.8109 5.55395 20.83 5.62299Z" fill="url(#paint0_linear_123_1012)"/>
<path d="M47 16.5C47 24.858 40.338 31.671 32 31.988V32H11V31.998L10.857 31.999C5.413 31.999 1 27.616 1 22.21C1 16.803 5.413 12.42 10.857 12.42C12.746 12.42 14.511 12.948 16.011 13.864C17.271 6.559 23.678 1 31.393 1C40.013 1 47 7.939 47 16.5Z" fill="url(#paint1_linear_123_1012)" fill-opacity="0.92"/>
<path d="M23 20L18.757 24.101C18.2017 24.6299 17.7597 25.2661 17.4576 25.9709C17.1556 26.6758 16.9998 27.4346 16.9998 28.2015C16.9998 28.9684 17.1556 29.7272 17.4576 30.4321C17.7597 31.1369 18.2017 31.7731 18.757 32.302C21.1 34.566 24.899 34.566 27.243 32.302C27.7983 31.7731 28.2403 31.1369 28.5424 30.4321C28.8444 29.7272 29.0002 28.9684 29.0002 28.2015C29.0002 27.4346 28.8444 26.6758 28.5424 25.9709C28.2403 25.2661 27.7983 24.6299 27.243 24.101L27.205 24.065L23 20ZM31 33L26.757 37.101C26.2017 37.6299 25.7597 38.2661 25.4576 38.9709C25.1556 39.6758 24.9998 40.4346 24.9998 41.2015C24.9998 41.9684 25.1556 42.7272 25.4576 43.4321C25.7597 44.1369 26.2017 44.7731 26.757 45.302C29.1 47.566 32.899 47.566 35.243 45.302C35.7983 44.7731 36.2403 44.1369 36.5424 43.4321C36.8444 42.7272 37.0002 41.9684 37.0002 41.2015C37.0002 40.4346 36.8444 39.6758 36.5424 38.9709C36.2403 38.2661 35.7983 37.6299 35.243 37.101L35.205 37.065L31 33ZM41 20L36.757 24.101C36.2018 24.6298 35.7597 25.2659 35.4577 25.9707C35.1556 26.6754 34.9999 27.4342 34.9999 28.201C34.9999 28.9678 35.1556 29.7266 35.4577 30.4313C35.7597 31.1361 36.2018 31.7722 36.757 32.301C39.101 34.566 42.9 34.566 45.243 32.301C45.7982 31.7722 46.2403 31.1361 46.5423 30.4313C46.8444 29.7266 47.0001 28.9678 47.0001 28.201C47.0001 27.4342 46.8444 26.6754 46.5423 25.9707C46.2403 25.2659 45.7982 24.6298 45.243 24.101L45.205 24.065L41 20Z" fill="#0B57D0"/>
<defs>
<linearGradient id="paint0_linear_123_1012" x1="2.53009" y1="3.3291" x2="27.4699" y2="3.3291" gradientUnits="userSpaceOnUse">
<stop offset="0.268" stop-color="#F1C100"/>
<stop offset="1" stop-color="#F39607"/>
</linearGradient>
<linearGradient id="paint1_linear_123_1012" x1="1" y1="1" x2="47" y2="1" gradientUnits="userSpaceOnUse">
<stop stop-color="#B5B5B5" stop-opacity="0.92"/>
<stop offset="1" stop-color="#E3E3E3" stop-opacity="0.92"/>
</linearGradient>
</defs>
</svg>
