<svg width="48" height="48" viewBox="0 0 48 48" fill="none" xmlns="http://www.w3.org/2000/svg">
<path d="M26.97 5.32397C28.535 5.39384 30.0171 6.04679 31.1249 7.15439C32.2327 8.26199 32.8859 9.74404 32.956 11.309C33.0213 12.7231 33.561 14.0741 34.488 15.144C36.57 17.545 36.572 21.129 34.476 23.517L34.233 23.794C33.2858 24.8751 32.7054 26.2285 32.575 27.66C32.4247 29.2663 31.7182 30.7696 30.5774 31.9104C29.4367 33.0511 27.9333 33.7577 26.327 33.908C24.8955 34.0381 23.5421 34.6186 22.461 35.566L22.184 35.809C19.796 37.906 16.211 37.903 13.811 35.822C12.7415 34.8942 11.3904 34.3541 9.97603 34.289C8.41099 34.2189 6.92882 33.5657 5.82106 32.4579C4.7133 31.3502 4.06013 29.868 3.99003 28.303C3.92506 26.8891 3.38533 25.5383 2.45803 24.469C0.376028 22.068 0.374028 18.483 2.47103 16.096L2.71403 15.819C3.66077 14.7372 4.24081 13.3836 4.37103 11.952C4.52153 10.3459 5.22817 8.84275 6.36892 7.70219C7.50967 6.56162 9.01291 5.85522 10.619 5.70497C12.0508 5.57481 13.4046 4.99437 14.486 4.04697L14.762 3.80397C17.15 1.70697 20.735 1.70897 23.135 3.79097C24.2048 4.71838 25.5558 5.25841 26.97 5.32397Z" fill="url(#paint0_linear_123_1025)"/>
<path d="M47 27.5C47 35.858 40.338 42.671 32 42.987V43H11V42.997L10.857 42.998C5.413 42.998 1 38.615 1 33.209C1 27.802 5.413 23.42 10.857 23.42C12.746 23.42 14.511 23.948 16.011 24.863C17.271 17.559 23.679 12 31.393 12C40.013 12 47 18.939 47 27.5Z" fill="url(#paint1_linear_123_1025)" fill-opacity="0.95"/>
<defs>
<linearGradient id="paint0_linear_123_1025" x1="0.8974" y1="2.23035" x2="36.0488" y2="2.23035" gradientUnits="userSpaceOnUse">
<stop offset="0.268" stop-color="#F1C100"/>
<stop offset="1" stop-color="#F39607"/>
</linearGradient>
<linearGradient id="paint1_linear_123_1025" x1="1" y1="12" x2="47" y2="12" gradientUnits="userSpaceOnUse">
<stop stop-color="#B5B5B5" stop-opacity="0.94902"/>
<stop offset="1" stop-color="#E3E3E3" stop-opacity="0.95"/>
</linearGradient>
</defs>
</svg>
