<svg width="48" height="48" viewBox="0 0 48 48" fill="none" xmlns="http://www.w3.org/2000/svg">
<path d="M47 16.5C47 24.858 40.338 31.671 32 31.988V32H11V31.998L10.857 31.999C5.413 31.999 1 27.616 1 22.21C1 16.803 5.413 12.42 10.857 12.42C12.746 12.42 14.511 12.948 16.011 13.864C17.271 6.559 23.678 1 31.393 1C40.013 1 47 7.939 47 16.5Z" fill="url(#paint0_linear_123_1040)" fill-opacity="0.92"/>
<path d="M23.0001 20L18.7571 24.101C18.2018 24.6299 17.7597 25.2661 17.4577 25.9709C17.1556 26.6758 16.9999 27.4346 16.9999 28.2015C16.9999 28.9684 17.1556 29.7272 17.4577 30.4321C17.7597 31.1369 18.2018 31.7731 18.7571 32.302C21.1001 34.566 24.8991 34.566 27.2431 32.302C27.7983 31.7731 28.2404 31.1369 28.5424 30.4321C28.8445 29.7272 29.0002 28.9684 29.0002 28.2015C29.0002 27.4346 28.8445 26.6758 28.5424 25.9709C28.2404 25.2661 27.7983 24.6299 27.2431 24.101L27.2051 24.065L23.0001 20ZM31.0001 33L26.7571 37.101C26.2018 37.6299 25.7597 38.2661 25.4577 38.9709C25.1556 39.6758 24.9999 40.4346 24.9999 41.2015C24.9999 41.9684 25.1556 42.7272 25.4577 43.4321C25.7597 44.1369 26.2018 44.7731 26.7571 45.302C29.1001 47.566 32.8991 47.566 35.2431 45.302C35.7983 44.7731 36.2404 44.1369 36.5424 43.4321C36.8445 42.7272 37.0002 41.9684 37.0002 41.2015C37.0002 40.4346 36.8445 39.6758 36.5424 38.9709C36.2404 38.2661 35.7983 37.6299 35.2431 37.101L35.2051 37.065L31.0001 33ZM41.0001 20L36.7571 24.101C36.2018 24.6298 35.7598 25.2659 35.4577 25.9707C35.1557 26.6754 35 27.4342 35 28.201C35 28.9678 35.1557 29.7266 35.4577 30.4313C35.7598 31.1361 36.2018 31.7722 36.7571 32.301C39.1011 34.566 42.9001 34.566 45.2431 32.301C45.7983 31.7722 46.2403 31.1361 46.5424 30.4313C46.8444 29.7266 47.0002 28.9678 47.0002 28.201C47.0002 27.4342 46.8444 26.6754 46.5424 25.9707C46.2403 25.2659 45.7983 24.6298 45.2431 24.101L45.2051 24.065L41.0001 20Z" fill="#0B57D0"/>
<defs>
<linearGradient id="paint0_linear_123_1040" x1="1" y1="1" x2="47" y2="1" gradientUnits="userSpaceOnUse">
<stop stop-color="#B5B5B5" stop-opacity="0.92"/>
<stop offset="1" stop-color="#E3E3E3" stop-opacity="0.92"/>
</linearGradient>
</defs>
</svg>
