<svg width="48" height="48" viewBox="0 0 48 48" fill="none" xmlns="http://www.w3.org/2000/svg">
<path d="M21.131 31L26.882 19.22C27.47 17.747 28.199 16.792 29.758 16.792H46.936C46.974 16.365 47 15.939 47 15.5C47 6.936 40.009 0 31.394 0C23.674 0 17.271 5.554 16.005 12.865C14.455 11.9152 12.6718 11.4143 10.854 11.418C5.41 11.418 1 15.797 1 21.209C1 26.402 5.064 30.638 10.203 30.974V31H21.131Z" fill="url(#paint0_linear_123_1124)" fill-opacity="0.92"/>
<path d="M18 33L13.76 37.107C13.2039 37.6353 12.761 38.2712 12.4584 38.9761C12.1558 39.6809 11.9998 40.4399 11.9998 41.207C11.9998 41.9741 12.1558 42.7331 12.4584 43.4379C12.761 44.1428 13.2039 44.7787 13.76 45.307C16.107 47.573 19.907 47.573 22.24 45.307C22.7961 44.7787 23.239 44.1428 23.5416 43.4379C23.8442 42.7331 24.0003 41.9741 24.0003 41.207C24.0003 40.4399 23.8442 39.6809 23.5416 38.9761C23.239 38.2712 22.7961 37.6353 22.24 37.107L22.2 37.067L18 33ZM7.00001 22L2.76001 26.107C2.20388 26.6353 1.76103 27.2712 1.45842 27.9761C1.15581 28.6809 0.999756 29.4399 0.999756 30.207C0.999756 30.9741 1.15581 31.7331 1.45842 32.4379C1.76103 33.1428 2.20388 33.7787 2.76001 34.307C5.10701 36.573 8.90701 36.573 11.24 34.307C11.7961 33.7787 12.239 33.1428 12.5416 32.4379C12.8442 31.7331 13.0003 30.9741 13.0003 30.207C13.0003 29.4399 12.8442 28.6809 12.5416 27.9761C12.239 27.2712 11.7961 26.6353 11.24 26.107L11.2 26.067L7.00001 22Z" fill="#0B57D0"/>
<path d="M30.667 21L24 34.754H30L29.253 47L44 30.958L38.667 30.932L44 21H30.667Z" fill="url(#paint1_linear_123_1124)"/>
<defs>
<linearGradient id="paint0_linear_123_1124" x1="1" y1="0" x2="47" y2="0" gradientUnits="userSpaceOnUse">
<stop stop-color="#B5B5B5" stop-opacity="0.94902"/>
<stop offset="1" stop-color="#E3E3E3" stop-opacity="0.95"/>
</linearGradient>
<linearGradient id="paint1_linear_123_1124" x1="24" y1="21" x2="44" y2="21" gradientUnits="userSpaceOnUse">
<stop offset="0.194" stop-color="#F1C100"/>
<stop offset="0.708" stop-color="#F39607"/>
</linearGradient>
</defs>
</svg>
